<?xml version="1.0" encoding="UTF-8"?>
<svg id="Ebene_1" data-name="Ebene 1" xmlns="http://www.w3.org/2000/svg" viewBox="0 0 527.03 177.91">
  <defs>
    <style>
      .cls-1 {
        fill: #4590c3;
      }

      .cls-2 {
        fill: #2e6ca4;
      }

      .cls-3 {
        fill: #54bce8;
      }

      .cls-4 {
        fill: #333;
      }
    </style>
  </defs>
  <g>
    <polygon class="cls-4" points="442.4 128.46 442.4 31.63 414.35 31.63 414.35 153.07 501.28 153.07 501.28 128.46 442.4 128.46"/>
    <path class="cls-4" d="M367.93,110.43c4.78-2.23,8.9-5.34,12.24-9.24,3.34-3.9,6.01-8.23,7.91-13.13,1.9-4.9,2.78-10.02,2.78-15.36,0-5.01-1.01-10.02-3.01-14.92-2-4.9-4.78-9.24-8.23-13.13-3.45-3.89-7.68-7.01-12.46-9.46-4.9-2.44-10.14-3.56-16.03-3.56h-44.97v24.6h43.07c1.56,0,3.22.34,4.78.89,1.56.67,3.01,1.67,4.23,3.01,1.22,1.33,2.23,3.12,3.01,5.12.78,2,1.11,4.46,1.11,7.34,0,5.45-1.22,9.68-3.56,12.46-2.44,2.9-5.24,4.23-8.57,4.23h-42.4l47.86,63.67h35.85l-30.28-40.29c2.34-.44,4.56-1.22,6.67-2.23h.03Z"/>
    <path class="cls-4" d="M252.06,128.46c-5.12,0-9.68-.89-13.69-2.78-4-1.78-7.34-4.34-10.02-7.57-2.67-3.22-4.78-7.13-6.12-11.47-1.45-4.34-2.12-9.24-2.12-14.47s.67-10.24,2.12-14.58,3.56-8.12,6.23-11.36c2.78-3.22,6.12-5.68,10.14-7.34s8.46-2.56,13.47-2.56h26.6v-24.6h-26.6c-10.02,0-18.81,1.56-26.38,4.78-7.57,3.22-13.8,7.57-18.92,13.02s-8.9,11.91-11.47,19.25-3.89,15.25-3.89,23.48c0,9.24,1.45,17.59,4.23,25.04,2.9,7.45,6.9,13.8,12.24,19.15s11.68,9.46,19.15,12.35c7.45,2.9,15.8,4.34,24.93,4.34h53.43l-18.58-24.6h-34.72v-.11h-.03Z"/>
  </g>
  <g>
    <g>
      <path class="cls-3" d="M158.86,46.21c0-5.39-2.97-10.15-7.27-12.75h0l-29.55-17.07h0c-2.16-1.26-4.76-1.97-7.46-1.97s-5.12.72-7.36,1.97h0l-22.27,12.84,14.82,8.53,14.82-8.53,29.55,17.07v34.13l-44.37,25.6,7.19,4.13h0c2.25,1.35,4.85,2.07,7.55,2.07s5.21-.72,7.36-1.97h0l29.64-17.16h0c4.31-2.52,7.27-7.19,7.27-12.58h0l.09-34.31h0Z"/>
      <path class="cls-1" d="M33.11,59.06c-4.67,2.69-7.36,7.64-7.36,12.66h0v34.13h0c0,2.52.63,5.12,1.97,7.46s3.23,4.13,5.39,5.39h0l22.27,12.84v-17.07l-14.82-8.53v-34.13l29.55-17.07,44.37,25.6v-8.26h0c0-2.61-.63-5.21-1.97-7.64-1.35-2.33-3.23-4.13-5.39-5.39h0l-29.64-17.16h0c-4.4-2.52-9.88-2.69-14.55,0h0l-29.82,17.16h0Z"/>
    </g>
    <path class="cls-2" d="M107.13,161.54c4.67,2.69,10.24,2.52,14.64,0h0l29.55-17.07h0c2.25-1.26,4.13-3.06,5.48-5.48,1.35-2.33,1.97-4.85,1.97-7.27h0v-25.69l-14.82,8.53v17.07l-29.55,17.07-29.55-17.07v-51.2l-7.19,4.13h0c-2.25,1.26-4.22,3.14-5.57,5.48-1.35,2.33-1.97,4.85-1.97,7.36h0v34.22h0c0,5.03,2.61,9.88,7.27,12.58h0l29.73,17.33h0Z"/>
  </g>
</svg>