<?xml version="1.0" encoding="UTF-8"?>
<svg id="Ebene_1" data-name="Ebene 1" xmlns="http://www.w3.org/2000/svg" viewBox="0 0 467.7 234.1">
  <defs>
    <style>
      .cls-1 {
        fill: #666;
      }

      .cls-2 {
        fill: #4590c3;
      }

      .cls-3 {
        fill: #2e6ca4;
      }

      .cls-4 {
        fill: #54bce8;
      }
    </style>
  </defs>
  <g>
    <path class="cls-1" d="M195.1,180.7c0-1.6.3-3.2.9-4.8.6-1.6,1.4-3,2.5-4.3s2.5-2.3,4.1-3.1,3.4-1.2,5.4-1.2c2.4,0,4.5.5,6.2,1.6,1.7,1.1,3,2.5,3.9,4.2l-3.3,2.2c-.4-.8-.8-1.5-1.4-2-.5-.6-1.1-1-1.7-1.3-.6-.3-1.3-.6-2-.7-.7-.1-1.3-.2-2-.2-1.4,0-2.6.3-3.7.8-1.1.6-1.9,1.3-2.6,2.2-.7.9-1.3,2-1.6,3.1-.4,1.2-.5,2.3-.5,3.5,0,1.3.2,2.5.6,3.7.4,1.2,1,2.2,1.8,3.1.8.9,1.7,1.6,2.7,2.2,1.1.5,2.2.8,3.5.8.7,0,1.3-.1,2-.2.7-.2,1.4-.4,2-.8.6-.4,1.2-.8,1.8-1.4.5-.6,1-1.2,1.3-2l3.5,2c-.4,1-1,1.9-1.8,2.6-.8.8-1.7,1.4-2.6,1.9-1,.5-2,.9-3.1,1.2s-2.2.4-3.2.4c-1.9,0-3.6-.4-5.1-1.2-1.6-.8-2.9-1.8-4-3.1s-2-2.8-2.6-4.4c-.7-1.5-1-3.1-1-4.8Z"/>
    <path class="cls-1" d="M231.6,194.6c-1.6,0-2.9-.3-4.2-.8s-2.3-1.3-3.2-2.2c-.9-.9-1.6-2-2-3.2-.5-1.2-.7-2.5-.7-3.9s.2-2.6.7-3.9c.5-1.2,1.2-2.3,2-3.2.9-.9,2-1.7,3.2-2.2,1.2-.6,2.6-.8,4.1-.8s2.9.3,4.1.8c1.2.6,2.3,1.3,3.2,2.2.9.9,1.6,2,2,3.2.5,1.2.7,2.5.7,3.9s-.2,2.6-.7,3.9c-.5,1.2-1.2,2.3-2,3.2-.9.9-2,1.7-3.2,2.2-1.1.5-2.5.8-4,.8ZM225.7,184.4c0,1,.2,1.8.5,2.6s.7,1.5,1.2,2.1,1.1,1.1,1.9,1.4c.7.3,1.5.5,2.3.5s1.6-.2,2.3-.5,1.3-.8,1.9-1.4c.5-.6.9-1.3,1.2-2.1.3-.8.5-1.7.5-2.6s-.2-1.8-.5-2.6-.7-1.5-1.2-2.1-1.1-1.1-1.9-1.4c-.7-.3-1.5-.5-2.3-.5s-1.6.2-2.3.5c-.7.4-1.3.8-1.9,1.4-.5.6-.9,1.3-1.3,2.1-.2.8-.4,1.7-.4,2.6Z"/>
    <path class="cls-1" d="M276.2,194.2h-4.1v-11c0-1.8-.3-3.2-.9-4-.6-.9-1.5-1.3-2.6-1.3-1.2,0-2.2.4-3.2,1.3-1,.9-1.7,2-2.1,3.4v11.6h-4.1v-11c0-1.9-.3-3.2-.9-4s-1.5-1.3-2.6-1.3c-1.2,0-2.3.4-3.2,1.3-1,.9-1.7,2-2.1,3.3v11.7h-4.1v-19.6h3.8v3.9c.8-1.4,1.8-2.4,3.1-3.2,1.3-.7,2.7-1.1,4.3-1.1s2.9.4,3.8,1.3c.9.9,1.5,1.9,1.7,3.2.8-1.5,1.9-2.6,3.1-3.3,1.3-.8,2.7-1.1,4.3-1.1,1.2,0,2.1.2,2.9.7.8.4,1.4,1,1.8,1.7.5.7.8,1.6.9,2.5.2,1,.3,2,.3,3.1v11.9h-.1Z"/>
    <path class="cls-1" d="M293,194.6c-1.6,0-3-.4-4.2-1.1s-2.2-1.7-2.9-2.9v11.7h-4.1v-27.6h3.6v3.5c.8-1.2,1.7-2.1,2.9-2.8,1.2-.7,2.5-1.1,4-1.1,1.4,0,2.6.3,3.7.8,1.1.6,2.1,1.3,2.9,2.2s1.5,2,1.9,3.2c.5,1.2.7,2.5.7,3.9s-.2,2.8-.6,4-1,2.3-1.8,3.2-1.7,1.6-2.8,2.2c-.9.5-2.1.8-3.3.8ZM291.6,191c.9,0,1.7-.2,2.4-.6.7-.4,1.3-.9,1.8-1.5s.9-1.3,1.2-2.1c.3-.8.4-1.6.4-2.5s-.2-1.8-.5-2.6-.7-1.5-1.3-2.1c-.5-.6-1.2-1.1-1.9-1.4-.8-.4-1.6-.5-2.4-.5-.5,0-1.1.1-1.7.3s-1.1.5-1.6.8c-.5.4-.9.8-1.3,1.2-.4.5-.6,1-.8,1.5v5.1c.2.6.6,1.2,1,1.7s.8,1,1.3,1.4,1,.7,1.6.9c.6.3,1.2.4,1.8.4Z"/>
    <path class="cls-1" d="M312.3,194.6c-2.1,0-3.6-.7-4.7-2s-1.6-3.3-1.6-6v-12h4.1v11.2c0,3.5,1.3,5.3,3.8,5.3,1.2,0,2.3-.4,3.3-1.1,1.1-.7,1.9-1.8,2.4-3.2v-12.2h4.1v14.8c0,.5.1.8.2,1,.2.2.5.3.9.3v3.5c-.4.1-.8.1-1.1.2h-.8c-.8,0-1.4-.2-1.9-.6-.5-.4-.8-.9-.8-1.6l-.1-2c-.9,1.4-2,2.5-3.4,3.2-1.2.8-2.7,1.2-4.4,1.2Z"/>
    <path class="cls-1" d="M340.5,193.2c-.5.3-1.3.5-2.2.8-.9.3-1.9.5-3,.5-.7,0-1.3-.1-1.8-.3-.6-.2-1.1-.4-1.5-.8-.4-.4-.8-.8-1-1.4-.3-.6-.4-1.2-.4-2v-12.3h-2.6v-3.2h2.6v-6.5h4.1v6.5h4.3v3.2h-4.3v11c0,.7.3,1.2.7,1.5.4.3.9.5,1.4.5.6,0,1.1-.1,1.7-.3.5-.2.9-.4,1.2-.5l.8,3.3Z"/>
    <path class="cls-1" d="M349.5,194.6c-1,0-1.8-.2-2.6-.5-.8-.3-1.5-.7-2.1-1.3s-1.1-1.2-1.4-2-.5-1.6-.5-2.4c0-.9.2-1.8.6-2.5.4-.8,1-1.4,1.7-2s1.6-1,2.6-1.3,2.1-.5,3.4-.5c.9,0,1.8.1,2.7.2.9.2,1.7.4,2.4.7v-1.4c0-1.5-.4-2.6-1.2-3.4-.8-.8-2-1.2-3.6-1.2-1.1,0-2.1.2-3.1.6-1,.4-2.1.9-3.1,1.7l-1.3-2.6c2.5-1.7,5.2-2.6,7.9-2.6s4.8.7,6.3,2.1c1.5,1.4,2.3,3.4,2.3,5.9v7.1c0,.9.4,1.3,1.1,1.4v3.5c-.4.1-.7.1-1,.2h-.8c-.8,0-1.4-.2-1.9-.6-.4-.4-.7-.9-.8-1.5l-.1-1.2c-.9,1.2-2,2-3.2,2.6-1.4.7-2.8,1-4.3,1ZM350.7,191.5c1,0,1.9-.2,2.8-.5.9-.4,1.6-.9,2.1-1.5.5-.5.8-.9.8-1.4v-2.6c-.7-.3-1.4-.5-2.2-.6-.8-.2-1.6-.2-2.3-.2-1.5,0-2.7.3-3.6,1-.9.6-1.4,1.5-1.4,2.5s.4,1.8,1.1,2.5c.6.5,1.5.8,2.7.8Z"/>
    <path class="cls-1" d="M376.7,193.2c-.5.3-1.3.5-2.2.8-.9.3-1.9.5-3,.5-.7,0-1.3-.1-1.8-.3-.6-.2-1.1-.4-1.5-.8-.4-.4-.8-.8-1-1.4-.3-.6-.4-1.2-.4-2v-12.3h-2.6v-3.2h2.6v-6.5h4.1v6.5h4.3v3.2h-4.3v11c0,.7.3,1.2.7,1.5.4.3.9.5,1.4.5.6,0,1.1-.1,1.7-.3.5-.2.9-.4,1.2-.5l.8,3.3Z"/>
    <path class="cls-1" d="M380.2,171.3v-4.5h4.1v4.5h-4.1ZM380.2,194.2v-19.6h4.1v19.6h-4.1Z"/>
    <path class="cls-1" d="M399.1,194.6c-1.6,0-2.9-.3-4.2-.8-1.2-.6-2.3-1.3-3.2-2.2-.9-.9-1.6-2-2-3.2-.5-1.2-.7-2.5-.7-3.9s.2-2.6.7-3.9c.5-1.2,1.2-2.3,2-3.2.9-.9,2-1.7,3.2-2.2,1.2-.6,2.6-.8,4.1-.8s2.9.3,4.1.8c1.2.6,2.3,1.3,3.2,2.2.9.9,1.6,2,2,3.2.5,1.2.7,2.5.7,3.9s-.2,2.6-.7,3.9c-.5,1.2-1.2,2.3-2,3.2-.9.9-2,1.7-3.2,2.2s-2.5.8-4,.8ZM393.2,184.4c0,1,.2,1.8.5,2.6s.7,1.5,1.2,2.1,1.1,1.1,1.9,1.4c.7.3,1.5.5,2.3.5s1.6-.2,2.3-.5c.7-.3,1.3-.8,1.9-1.4.5-.6.9-1.3,1.2-2.1.3-.8.5-1.7.5-2.6s-.2-1.8-.5-2.6-.7-1.5-1.2-2.1-1.1-1.1-1.9-1.4c-.7-.3-1.5-.5-2.3-.5s-1.6.2-2.3.5c-.7.4-1.3.8-1.9,1.4-.5.6-.9,1.3-1.3,2.1-.2.8-.4,1.7-.4,2.6Z"/>
    <path class="cls-1" d="M431.3,194.2h-4.1v-11c0-1.9-.3-3.2-.9-4s-1.5-1.3-2.6-1.3c-.6,0-1.2.1-1.8.3s-1.2.5-1.7,1-1,.9-1.4,1.5-.7,1.2-1,1.9v11.7h-4.1v-19.6h3.8v3.9c.8-1.3,1.8-2.4,3.3-3.1,1.4-.8,3-1.1,4.7-1.1,1.2,0,2.1.2,2.9.6.8.4,1.3,1,1.8,1.7.4.7.7,1.6.9,2.6.2,1,.3,2,.3,3.1v11.8h-.1Z"/>
    <path class="cls-1" d="M442.2,194.6c-1,0-1.8-.2-2.6-.5-.8-.3-1.5-.7-2.1-1.3s-1.1-1.2-1.4-2-.5-1.6-.5-2.4c0-.9.2-1.8.6-2.5.4-.8,1-1.4,1.7-2s1.6-1,2.6-1.3,2.1-.5,3.4-.5c.9,0,1.8.1,2.7.2.9.2,1.7.4,2.4.7v-1.4c0-1.5-.4-2.6-1.2-3.4-.8-.8-2-1.2-3.6-1.2-1.1,0-2.1.2-3.1.6-1,.4-2.1.9-3.1,1.7l-1.3-2.6c2.5-1.7,5.2-2.6,7.9-2.6s4.8.7,6.3,2.1c1.5,1.4,2.3,3.4,2.3,5.9v7.1c0,.9.4,1.3,1.1,1.4v3.5c-.4.1-.7.1-1,.2h-.8c-.8,0-1.4-.2-1.9-.6-.4-.4-.7-.9-.8-1.5l-.1-1.2c-.9,1.2-2,2-3.2,2.6-1.5.7-2.9,1-4.3,1ZM443.3,191.5c1,0,1.9-.2,2.8-.5.9-.4,1.6-.9,2.1-1.5.5-.5.8-.9.8-1.4v-2.6c-.7-.3-1.4-.5-2.2-.6s-1.6-.2-2.3-.2c-1.5,0-2.7.3-3.6,1-.9.6-1.4,1.5-1.4,2.5s.4,1.8,1.1,2.5c.6.5,1.6.8,2.7.8Z"/>
    <path class="cls-1" d="M458.8,166.8h4.1v21.7c0,.7.2,1.3.6,1.7s.9.6,1.6.6c.3,0,.6,0,1-.2.4-.1.7-.2,1-.3l.6,3.2c-.6.3-1.3.5-2.1.7s-1.6.2-2.2.2c-1.4,0-2.5-.4-3.3-1.2s-1.2-1.9-1.2-3.3v-23.1h-.1Z"/>
    <path class="cls-1" d="M196.8,233.7v-26.7h11.6c1.2,0,2.3.3,3.3.8s1.9,1.2,2.6,2c.7.8,1.3,1.7,1.7,2.8.4,1,.6,2.1.6,3.2,0,.9-.1,1.8-.4,2.6s-.6,1.6-1.1,2.3-1,1.3-1.7,1.8c-.7.5-1.4.9-2.1,1.1l6.3,10.1h-4.8l-5.8-9.3h-6.2v9.3h-4ZM201,220.7h7.4c.6,0,1.1-.1,1.6-.4.5-.3.9-.6,1.3-1.1.4-.5.6-1,.8-1.6s.3-1.2.3-1.9-.1-1.3-.4-1.9c-.2-.6-.6-1.1-.9-1.6-.4-.5-.8-.8-1.4-1.1-.5-.3-1-.4-1.6-.4h-7.1v10h0Z"/>
    <path class="cls-1" d="M230.4,234.1c-1.6,0-2.9-.3-4.2-.8-1.2-.6-2.3-1.3-3.2-2.2s-1.6-2-2-3.2c-.5-1.2-.7-2.5-.7-3.9s.2-2.6.7-3.9c.5-1.2,1.2-2.3,2-3.2.9-.9,2-1.7,3.2-2.2,1.2-.6,2.6-.8,4.1-.8s2.9.3,4.1.8c1.2.6,2.3,1.3,3.2,2.2.9.9,1.6,2,2,3.2.5,1.2.7,2.5.7,3.9s-.2,2.6-.7,3.9c-.5,1.2-1.2,2.3-2,3.2-.9.9-2,1.7-3.2,2.2-1.1.5-2.5.8-4,.8ZM224.5,223.9c0,1,.2,1.8.5,2.6.3.8.7,1.5,1.2,2.1s1.1,1.1,1.9,1.4c.7.3,1.5.5,2.3.5s1.6-.2,2.3-.5c.7-.3,1.3-.8,1.9-1.4.5-.6.9-1.3,1.2-2.1.3-.8.5-1.7.5-2.6s-.2-1.8-.5-2.6-.7-1.5-1.2-2.1-1.1-1.1-1.9-1.4c-.7-.3-1.5-.5-2.3-.5s-1.6.2-2.3.5c-.7.4-1.3.8-1.9,1.4-.5.6-.9,1.3-1.3,2.1-.2.8-.4,1.7-.4,2.6Z"/>
    <path class="cls-1" d="M255.5,234.1c-1.5,0-2.9-.4-4.1-1.1s-2.2-1.7-2.9-2.9v3.6h-3.6v-27.4h4.1v11.5c.8-1.3,1.7-2.2,2.9-3,1.2-.7,2.5-1.1,4.1-1.1,1.3,0,2.5.3,3.6.8,1.1.6,2,1.3,2.8,2.3.8.9,1.4,2,1.8,3.3.4,1.2.6,2.5.6,3.9s-.2,2.7-.7,3.9c-.5,1.2-1.1,2.3-2,3.2-.8.9-1.8,1.6-2.9,2.2-1.1.5-2.4.8-3.7.8ZM254.4,230.5c.9,0,1.7-.2,2.5-.5.8-.4,1.4-.8,1.9-1.4s1-1.3,1.3-2.1c.3-.8.5-1.6.5-2.5s-.1-1.7-.4-2.5-.7-1.5-1.2-2.1-1.1-1.1-1.8-1.5c-.7-.4-1.5-.6-2.3-.6-1.3,0-2.4.4-3.4,1.2s-1.7,1.8-2.3,3v5.2c.2.6.4,1.1.8,1.6s.8.9,1.3,1.2c.5.4,1,.6,1.6.8.5.2,1,.2,1.5.2Z"/>
    <path class="cls-1" d="M278.3,234.1c-1.6,0-2.9-.3-4.2-.8-1.2-.6-2.3-1.3-3.2-2.2s-1.6-2-2-3.2c-.5-1.2-.7-2.5-.7-3.9s.2-2.6.7-3.9c.5-1.2,1.2-2.3,2-3.2.9-.9,2-1.7,3.2-2.2,1.2-.6,2.6-.8,4.1-.8s2.9.3,4.1.8c1.2.6,2.3,1.3,3.2,2.2.9.9,1.6,2,2,3.2.5,1.2.7,2.5.7,3.9s-.2,2.6-.7,3.9c-.5,1.2-1.2,2.3-2,3.2-.9.9-2,1.7-3.2,2.2-1.1.5-2.5.8-4,.8ZM272.4,223.9c0,1,.2,1.8.5,2.6.3.8.7,1.5,1.2,2.1s1.1,1.1,1.9,1.4c.7.3,1.5.5,2.3.5s1.6-.2,2.3-.5c.7-.3,1.3-.8,1.9-1.4.5-.6.9-1.3,1.2-2.1.3-.8.5-1.7.5-2.6s-.2-1.8-.5-2.6-.7-1.5-1.2-2.1-1.1-1.1-1.9-1.4c-.7-.3-1.5-.5-2.3-.5s-1.6.2-2.3.5c-.7.4-1.3.8-1.9,1.4-.5.6-.9,1.3-1.3,2.1-.2.8-.4,1.7-.4,2.6Z"/>
    <path class="cls-1" d="M303.4,232.7c-.5.3-1.3.5-2.2.8-.9.3-1.9.5-3,.5-.7,0-1.3-.1-1.8-.3-.6-.2-1.1-.4-1.5-.8s-.8-.8-1-1.4c-.3-.6-.4-1.2-.4-2v-12.3h-2.7v-3.2h2.6v-6.5h4.1v6.5h4.3v3.2h-4.3v11c0,.7.3,1.2.7,1.5.4.3.9.5,1.4.5.6,0,1.1-.1,1.7-.3.5-.2.9-.4,1.2-.5l.9,3.3Z"/>
    <path class="cls-1" d="M306.8,210.8v-4.5h4.1v4.5h-4.1ZM306.8,233.7v-19.6h4.1v19.6h-4.1Z"/>
    <path class="cls-1" d="M315.6,223.9c0-1.4.2-2.7.7-3.9s1.2-2.3,2-3.2c.9-.9,2-1.7,3.2-2.2,1.3-.5,2.7-.8,4.2-.8,2,0,3.8.4,5.2,1.3,1.5.9,2.6,2.1,3.3,3.5l-4,1.3c-.5-.8-1.1-1.5-1.9-1.9-.8-.5-1.7-.7-2.7-.7-.8,0-1.6.2-2.3.5-.7.3-1.3.8-1.9,1.4-.5.6-.9,1.3-1.2,2.1-.3.8-.5,1.7-.5,2.7s.2,1.8.5,2.6c.3.8.7,1.5,1.3,2.1.5.6,1.2,1.1,1.9,1.4.7.3,1.5.5,2.3.5.5,0,1-.1,1.5-.2s1-.3,1.4-.6c.4-.2.8-.5,1.1-.9.3-.3.5-.7.7-1.1l4.1,1.2c-.7,1.5-1.7,2.7-3.3,3.6-1.5.9-3.3,1.4-5.4,1.4-1.5,0-2.9-.3-4.2-.8-1.3-.6-2.3-1.3-3.2-2.2s-1.6-2-2.1-3.2c-.5-1.3-.7-2.6-.7-3.9Z"/>
    <path class="cls-1" d="M345.8,234.1c-1.6,0-3.1-.3-4.7-.8s-2.9-1.2-4-2.2l1.7-2.6c1.2.9,2.3,1.5,3.5,1.9s2.3.7,3.5.7,2.2-.2,2.9-.7c.7-.5,1.1-1.2,1.1-2s-.4-1.4-1.2-1.8c-.8-.4-2.1-.8-3.8-1.2-1.2-.3-2.3-.6-3.2-.9-.9-.3-1.6-.7-2.1-1.1-.6-.4-1-.9-1.2-1.4-.3-.5-.4-1.2-.4-1.9,0-1,.2-1.9.6-2.7s.9-1.4,1.6-2c.7-.5,1.5-.9,2.4-1.2s1.9-.4,3-.4c1.5,0,2.9.2,4.1.7,1.3.5,2.4,1.1,3.4,2l-1.8,2.5c-1.8-1.5-3.8-2.2-5.8-2.2-1.1,0-1.9.2-2.6.7-.7.4-1.1,1.1-1.1,2.1,0,.4.1.7.2,1,.2.3.4.5.7.7.3.2.8.4,1.3.5.5.2,1.2.3,2,.5,1.3.3,2.5.7,3.4,1,1,.3,1.8.7,2.4,1.1s1.1,1,1.4,1.5c.3.6.5,1.3.5,2.1,0,1.9-.7,3.4-2.1,4.4-1.4,1.1-3.3,1.7-5.7,1.7Z"/>
    <path class="cls-1" d="M370.1,233.7v-26.7h4.2v23h14.3v3.7h-18.5Z"/>
    <path class="cls-1" d="M398.1,234.1c-1,0-1.8-.2-2.6-.5-.8-.3-1.5-.7-2.1-1.3-.6-.6-1.1-1.2-1.4-2s-.5-1.6-.5-2.4c0-.9.2-1.8.6-2.5.4-.8,1-1.4,1.7-2s1.6-1,2.6-1.3,2.1-.5,3.4-.5c.9,0,1.8.1,2.7.2.9.2,1.7.4,2.4.7v-1.4c0-1.5-.4-2.6-1.2-3.4-.8-.8-2-1.2-3.6-1.2-1.1,0-2.1.2-3.1.6-1,.4-2.1.9-3.1,1.7l-1.3-2.6c2.5-1.7,5.2-2.6,7.9-2.6s4.8.7,6.3,2.1c1.5,1.4,2.3,3.4,2.3,5.9v7.1c0,.9.4,1.3,1.1,1.4v3.5c-.4.1-.7.1-1,.2h-.8c-.8,0-1.4-.2-1.9-.6-.4-.4-.7-.9-.8-1.5l-.1-1.2c-.9,1.2-2,2-3.2,2.6-1.5.7-2.9,1-4.3,1ZM399.2,231c1,0,1.9-.2,2.8-.5.9-.4,1.6-.9,2.1-1.5.5-.5.8-.9.8-1.4v-2.6c-.7-.3-1.4-.5-2.2-.6-.8-.2-1.6-.2-2.3-.2-1.5,0-2.7.3-3.6,1-.9.6-1.4,1.5-1.4,2.5s.4,1.8,1.1,2.5c.6.5,1.6.8,2.7.8Z"/>
    <path class="cls-1" d="M425.5,234.1c-1.5,0-2.9-.4-4.1-1.1s-2.2-1.7-2.9-2.9v3.6h-3.6v-27.4h4.1v11.5c.8-1.3,1.7-2.2,2.9-3,1.2-.7,2.5-1.1,4.1-1.1,1.3,0,2.5.3,3.6.8,1.1.6,2,1.3,2.8,2.3.8.9,1.4,2,1.8,3.3.4,1.2.6,2.5.6,3.9s-.2,2.7-.7,3.9c-.5,1.2-1.1,2.3-2,3.2-.8.9-1.8,1.6-2.9,2.2-1.2.5-2.4.8-3.7.8ZM424.4,230.5c.9,0,1.7-.2,2.5-.5.8-.4,1.4-.8,1.9-1.4s1-1.3,1.3-2.1c.3-.8.5-1.6.5-2.5s-.1-1.7-.4-2.5-.7-1.5-1.2-2.1-1.1-1.1-1.8-1.5c-.7-.4-1.5-.6-2.3-.6-1.3,0-2.4.4-3.4,1.2s-1.7,1.8-2.3,3v5.2c.1.6.4,1.1.8,1.6s.8.9,1.3,1.2c.5.4,1,.6,1.6.8.4.2.9.2,1.5.2Z"/>
  </g>
  <g>
    <polygon class="cls-1" points="414.5 115.4 414.5 28.4 389.3 28.4 389.3 137.5 467.4 137.5 467.4 115.4 414.5 115.4"/>
    <path class="cls-1" d="M347.6,99.2c4.3-2,8-4.8,11-8.3s5.4-7.4,7.1-11.8,2.5-9,2.5-13.8c0-4.5-.9-9-2.7-13.4-1.8-4.4-4.3-8.3-7.4-11.8s-6.9-6.3-11.2-8.5c-4.4-2.2-9.1-3.2-14.4-3.2h-40.4v22.1h38.7c1.4,0,2.9.3,4.3.8,1.4.6,2.7,1.5,3.8,2.7,1.1,1.2,2,2.8,2.7,4.6.7,1.8,1,4,1,6.6,0,4.9-1.1,8.7-3.2,11.2-2.2,2.6-4.7,3.8-7.7,3.8h-38.1l43,57.2h32.2l-27.2-36.2c2.1-.4,4.1-1.1,6-2Z"/>
    <path class="cls-1" d="M243.5,115.4c-4.6,0-8.7-.8-12.3-2.5-3.6-1.6-6.6-3.9-9-6.8-2.4-2.9-4.3-6.4-5.5-10.3-1.3-3.9-1.9-8.3-1.9-13s.6-9.2,1.9-13.1,3.2-7.3,5.6-10.2c2.5-2.9,5.5-5.1,9.1-6.6s7.6-2.3,12.1-2.3h23.9v-22.1h-23.9c-9,0-16.9,1.4-23.7,4.3-6.8,2.9-12.4,6.8-17,11.7-4.6,4.9-8,10.7-10.3,17.3s-3.5,13.7-3.5,21.1c0,8.3,1.3,15.8,3.8,22.5,2.6,6.7,6.2,12.4,11,17.2s10.5,8.5,17.2,11.1,14.2,3.9,22.4,3.9h48l-16.7-22.1h-31.2v-.1Z"/>
  </g>
  <g>
    <g>
      <path class="cls-4" d="M148.2,35.4c0-6-3.3-11.3-8.1-14.2h0L107.2,2.2h0c-2.4-1.4-5.3-2.2-8.3-2.2s-5.7.8-8.2,2.2h0l-24.8,14.3,16.5,9.5,16.5-9.5,32.9,19v38l-49.4,28.5,8,4.6h0c2.5,1.5,5.4,2.3,8.4,2.3s5.8-.8,8.2-2.2h0l33-19.1h0c4.8-2.8,8.1-8,8.1-14h0l.1-38.2h0Z"/>
      <path class="cls-2" d="M8.2,49.7C3,52.7,0,58.2,0,63.8h0v38h0c0,2.8.7,5.7,2.2,8.3s3.6,4.6,6,6h0l24.8,14.3v-19l-16.5-9.5v-38l32.9-19,49.4,28.5v-9.2h0c0-2.9-.7-5.8-2.2-8.5-1.5-2.6-3.6-4.6-6-6h0l-33-19.1h0c-4.9-2.8-11-3-16.2,0h0L8.2,49.7h0Z"/>
    </g>
    <path class="cls-3" d="M90.6,163.8c5.2,3,11.4,2.8,16.3,0h0l32.9-19h0c2.5-1.4,4.6-3.4,6.1-6.1,1.5-2.6,2.2-5.4,2.2-8.1h0v-28.6l-16.5,9.5v19l-32.9,19-32.9-19v-57l-8,4.6h0c-2.5,1.4-4.7,3.5-6.2,6.1s-2.2,5.4-2.2,8.2h0v38.1h0c0,5.6,2.9,11,8.1,14h0l33.1,19.3h0Z"/>
  </g>
</svg>