<?xml version="1.0" encoding="UTF-8"?>
<svg id="Layer_1" data-name="Layer 1" xmlns="http://www.w3.org/2000/svg" viewBox="0 0 148.2 165.98">
  <defs>
    <style>
      .cls-1 {
        fill: #4790c3;
      }

      .cls-2 {
        fill: #306da4;
      }

      .cls-3 {
        fill: #56bce8;
      }
    </style>
  </defs>
  <g>
    <path class="cls-3" d="M148.2,35.4c0-6-3.3-11.3-8.1-14.2h0L107.2,2.2h0c-2.4-1.4-5.3-2.2-8.3-2.2s-5.7.8-8.2,2.2h0l-24.8,14.3,16.5,9.5,16.5-9.5,32.9,19v38l-49.4,28.5,8,4.6h0c2.5,1.5,5.4,2.3,8.4,2.3s5.8-.8,8.2-2.2h0l33-19.1h0c4.8-2.8,8.1-8,8.1-14h0l.1-38.2h0Z"/>
    <path class="cls-1" d="M8.2,49.7C3,52.7,0,58.2,0,63.8h0v38h0c0,2.8.7,5.7,2.2,8.3s3.6,4.6,6,6h0l24.8,14.3v-19l-16.5-9.5v-38l32.9-19,49.4,28.5v-9.2h0c0-2.9-.7-5.8-2.2-8.5-1.5-2.6-3.6-4.6-6-6h0l-33-19.1h0c-4.9-2.8-11-3-16.2,0h0L8.2,49.7h0Z"/>
  </g>
  <path class="cls-2" d="M90.6,163.8c5.2,3,11.4,2.8,16.3,0h0l32.9-19h0c2.5-1.4,4.6-3.4,6.1-6.1,1.5-2.6,2.2-5.4,2.2-8.1h0v-28.6l-16.5,9.5v19l-32.9,19-32.9-19v-57l-8,4.6h0c-2.5,1.4-4.7,3.5-6.2,6.1s-2.2,5.4-2.2,8.2h0v38.1h0c0,5.6,2.9,11,8.1,14h0l33.1,19.3h0Z"/>
</svg>